<mxfile host="app.diagrams.net" modified="2021-05-25T13:23:47.523Z" agent="5.0 (Windows NT 10.0; Win64; x64) AppleWebKit/537.36 (KHTML, like Gecko) Chrome/90.0.4430.212 Safari/537.36 Edg/90.0.818.66" etag="EJIsVojFAKKC_2ZFC-94" version="14.7.1" type="github">
  <diagram id="l19hE49-DuXAeXrQDloS" name="Page-1">
    <mxGraphModel dx="921" dy="492" grid="1" gridSize="10" guides="1" tooltips="1" connect="1" arrows="1" fold="1" page="1" pageScale="1" pageWidth="4681" pageHeight="3300" math="0" shadow="0">
      <root>
        <mxCell id="0" />
        <mxCell id="1" parent="0" />
        <mxCell id="fxtVjTBRkr7HKqSmOPXZ-139" value="" style="rounded=0;whiteSpace=wrap;html=1;fillColor=#ffffff;strokeWidth=2;" vertex="1" parent="1">
          <mxGeometry x="90" y="740" width="700" height="330" as="geometry" />
        </mxCell>
        <mxCell id="fxtVjTBRkr7HKqSmOPXZ-52" value="" style="rounded=0;whiteSpace=wrap;html=1;strokeWidth=2;" vertex="1" parent="1">
          <mxGeometry x="90" y="500" width="700" height="220" as="geometry" />
        </mxCell>
        <mxCell id="fxtVjTBRkr7HKqSmOPXZ-13" value="" style="rounded=0;whiteSpace=wrap;html=1;strokeWidth=2;" vertex="1" parent="1">
          <mxGeometry x="90" y="260" width="700" height="230" as="geometry" />
        </mxCell>
        <mxCell id="fxtVjTBRkr7HKqSmOPXZ-39" style="edgeStyle=orthogonalEdgeStyle;rounded=0;orthogonalLoop=1;jettySize=auto;html=1;exitX=1;exitY=0.5;exitDx=0;exitDy=0;entryX=0.5;entryY=0;entryDx=0;entryDy=0;strokeWidth=2;" edge="1" parent="1" source="fxtVjTBRkr7HKqSmOPXZ-1" target="fxtVjTBRkr7HKqSmOPXZ-23">
          <mxGeometry relative="1" as="geometry" />
        </mxCell>
        <mxCell id="fxtVjTBRkr7HKqSmOPXZ-1" value="旅游评论语料库" style="shape=datastore;whiteSpace=wrap;html=1;strokeWidth=2;" vertex="1" parent="1">
          <mxGeometry x="280" y="280" width="60" height="60" as="geometry" />
        </mxCell>
        <mxCell id="fxtVjTBRkr7HKqSmOPXZ-5" style="edgeStyle=orthogonalEdgeStyle;rounded=0;orthogonalLoop=1;jettySize=auto;html=1;exitX=1;exitY=0.5;exitDx=0;exitDy=0;strokeWidth=2;" edge="1" parent="1" source="fxtVjTBRkr7HKqSmOPXZ-3" target="fxtVjTBRkr7HKqSmOPXZ-1">
          <mxGeometry relative="1" as="geometry" />
        </mxCell>
        <mxCell id="fxtVjTBRkr7HKqSmOPXZ-3" value="selenium爬虫" style="rounded=0;whiteSpace=wrap;html=1;strokeWidth=2;" vertex="1" parent="1">
          <mxGeometry x="130" y="290" width="120" height="40" as="geometry" />
        </mxCell>
        <mxCell id="fxtVjTBRkr7HKqSmOPXZ-114" style="edgeStyle=orthogonalEdgeStyle;rounded=0;orthogonalLoop=1;jettySize=auto;html=1;exitX=0.5;exitY=1;exitDx=0;exitDy=0;entryX=0.5;entryY=0;entryDx=0;entryDy=0;endArrow=classic;endFill=1;strokeWidth=2;" edge="1" parent="1" source="fxtVjTBRkr7HKqSmOPXZ-8" target="fxtVjTBRkr7HKqSmOPXZ-16">
          <mxGeometry relative="1" as="geometry" />
        </mxCell>
        <mxCell id="fxtVjTBRkr7HKqSmOPXZ-115" style="edgeStyle=orthogonalEdgeStyle;rounded=0;orthogonalLoop=1;jettySize=auto;html=1;exitX=0.5;exitY=1;exitDx=0;exitDy=0;entryX=0.5;entryY=0;entryDx=0;entryDy=0;endArrow=classic;endFill=1;strokeWidth=2;" edge="1" parent="1" source="fxtVjTBRkr7HKqSmOPXZ-8" target="fxtVjTBRkr7HKqSmOPXZ-17">
          <mxGeometry relative="1" as="geometry" />
        </mxCell>
        <mxCell id="fxtVjTBRkr7HKqSmOPXZ-117" style="edgeStyle=orthogonalEdgeStyle;rounded=0;orthogonalLoop=1;jettySize=auto;html=1;exitX=0.5;exitY=1;exitDx=0;exitDy=0;entryX=0.5;entryY=0;entryDx=0;entryDy=0;endArrow=classic;endFill=1;strokeWidth=2;" edge="1" parent="1" source="fxtVjTBRkr7HKqSmOPXZ-8" target="fxtVjTBRkr7HKqSmOPXZ-18">
          <mxGeometry relative="1" as="geometry" />
        </mxCell>
        <mxCell id="fxtVjTBRkr7HKqSmOPXZ-8" value="训练数据集" style="rounded=0;whiteSpace=wrap;html=1;strokeWidth=2;" vertex="1" parent="1">
          <mxGeometry x="525.5" y="410" width="90" height="40" as="geometry" />
        </mxCell>
        <mxCell id="fxtVjTBRkr7HKqSmOPXZ-138" style="edgeStyle=orthogonalEdgeStyle;rounded=0;orthogonalLoop=1;jettySize=auto;html=1;exitX=0;exitY=0.5;exitDx=0;exitDy=0;entryX=0;entryY=0.5;entryDx=0;entryDy=0;endArrow=classic;endFill=1;strokeWidth=2;" edge="1" parent="1" source="fxtVjTBRkr7HKqSmOPXZ-9" target="fxtVjTBRkr7HKqSmOPXZ-134">
          <mxGeometry relative="1" as="geometry" />
        </mxCell>
        <mxCell id="fxtVjTBRkr7HKqSmOPXZ-9" value="测试数据集" style="rounded=0;whiteSpace=wrap;html=1;strokeWidth=2;" vertex="1" parent="1">
          <mxGeometry x="120" y="410" width="90" height="40" as="geometry" />
        </mxCell>
        <mxCell id="fxtVjTBRkr7HKqSmOPXZ-14" value="数&lt;br&gt;据&lt;br&gt;获&lt;br&gt;取&lt;br&gt;模&lt;br&gt;块" style="text;html=1;strokeColor=none;fillColor=none;align=center;verticalAlign=middle;whiteSpace=wrap;rounded=0;strokeWidth=2;" vertex="1" parent="1">
          <mxGeometry x="715.5" y="280" width="40" height="120" as="geometry" />
        </mxCell>
        <mxCell id="fxtVjTBRkr7HKqSmOPXZ-121" style="edgeStyle=orthogonalEdgeStyle;rounded=0;orthogonalLoop=1;jettySize=auto;html=1;exitX=0.5;exitY=1;exitDx=0;exitDy=0;entryX=0.5;entryY=0;entryDx=0;entryDy=0;endArrow=classic;endFill=1;strokeWidth=2;" edge="1" parent="1" source="fxtVjTBRkr7HKqSmOPXZ-16" target="fxtVjTBRkr7HKqSmOPXZ-50">
          <mxGeometry relative="1" as="geometry" />
        </mxCell>
        <mxCell id="fxtVjTBRkr7HKqSmOPXZ-16" value="训练集80%" style="whiteSpace=wrap;html=1;aspect=fixed;strokeWidth=2;" vertex="1" parent="1">
          <mxGeometry x="420" y="510" width="50" height="50" as="geometry" />
        </mxCell>
        <mxCell id="fxtVjTBRkr7HKqSmOPXZ-124" style="edgeStyle=orthogonalEdgeStyle;rounded=0;orthogonalLoop=1;jettySize=auto;html=1;exitX=0.5;exitY=1;exitDx=0;exitDy=0;entryX=0.5;entryY=0;entryDx=0;entryDy=0;endArrow=classic;endFill=1;strokeWidth=2;" edge="1" parent="1" source="fxtVjTBRkr7HKqSmOPXZ-17" target="fxtVjTBRkr7HKqSmOPXZ-50">
          <mxGeometry relative="1" as="geometry" />
        </mxCell>
        <mxCell id="fxtVjTBRkr7HKqSmOPXZ-17" value="验证集&lt;br&gt;10%" style="whiteSpace=wrap;html=1;aspect=fixed;strokeWidth=2;" vertex="1" parent="1">
          <mxGeometry x="490" y="510" width="50" height="50" as="geometry" />
        </mxCell>
        <mxCell id="fxtVjTBRkr7HKqSmOPXZ-123" style="edgeStyle=orthogonalEdgeStyle;rounded=0;orthogonalLoop=1;jettySize=auto;html=1;exitX=0.5;exitY=1;exitDx=0;exitDy=0;entryX=0.5;entryY=0;entryDx=0;entryDy=0;endArrow=classic;endFill=1;strokeWidth=2;" edge="1" parent="1" source="fxtVjTBRkr7HKqSmOPXZ-18" target="fxtVjTBRkr7HKqSmOPXZ-50">
          <mxGeometry relative="1" as="geometry" />
        </mxCell>
        <mxCell id="fxtVjTBRkr7HKqSmOPXZ-18" value="测试集10%" style="whiteSpace=wrap;html=1;aspect=fixed;strokeWidth=2;" vertex="1" parent="1">
          <mxGeometry x="560" y="510" width="50" height="50" as="geometry" />
        </mxCell>
        <mxCell id="fxtVjTBRkr7HKqSmOPXZ-112" style="edgeStyle=orthogonalEdgeStyle;rounded=0;orthogonalLoop=1;jettySize=auto;html=1;exitX=0.5;exitY=1;exitDx=0;exitDy=0;entryX=0.5;entryY=0;entryDx=0;entryDy=0;endArrow=classic;endFill=1;strokeWidth=2;" edge="1" parent="1" source="fxtVjTBRkr7HKqSmOPXZ-23" target="fxtVjTBRkr7HKqSmOPXZ-8">
          <mxGeometry relative="1" as="geometry" />
        </mxCell>
        <mxCell id="fxtVjTBRkr7HKqSmOPXZ-113" style="edgeStyle=orthogonalEdgeStyle;rounded=0;orthogonalLoop=1;jettySize=auto;html=1;exitX=0.5;exitY=1;exitDx=0;exitDy=0;endArrow=classic;endFill=1;strokeWidth=2;" edge="1" parent="1" source="fxtVjTBRkr7HKqSmOPXZ-23" target="fxtVjTBRkr7HKqSmOPXZ-9">
          <mxGeometry relative="1" as="geometry" />
        </mxCell>
        <mxCell id="fxtVjTBRkr7HKqSmOPXZ-23" value="数据预处理" style="shape=process;whiteSpace=wrap;html=1;backgroundOutline=1;strokeWidth=2;" vertex="1" parent="1">
          <mxGeometry x="437.5" y="330" width="122.5" height="40" as="geometry" />
        </mxCell>
        <mxCell id="fxtVjTBRkr7HKqSmOPXZ-119" style="edgeStyle=orthogonalEdgeStyle;rounded=0;orthogonalLoop=1;jettySize=auto;html=1;exitX=0.5;exitY=1;exitDx=0;exitDy=0;endArrow=classic;endFill=1;strokeWidth=2;" edge="1" parent="1" source="fxtVjTBRkr7HKqSmOPXZ-47" target="fxtVjTBRkr7HKqSmOPXZ-50">
          <mxGeometry relative="1" as="geometry" />
        </mxCell>
        <mxCell id="fxtVjTBRkr7HKqSmOPXZ-47" value="预训练模型&lt;br&gt;bert-base-chinese" style="rounded=0;whiteSpace=wrap;html=1;strokeWidth=2;" vertex="1" parent="1">
          <mxGeometry x="260" y="510" width="130" height="50" as="geometry" />
        </mxCell>
        <mxCell id="fxtVjTBRkr7HKqSmOPXZ-125" style="edgeStyle=orthogonalEdgeStyle;rounded=0;orthogonalLoop=1;jettySize=auto;html=1;exitX=0.5;exitY=1;exitDx=0;exitDy=0;endArrow=classic;endFill=1;strokeWidth=2;" edge="1" parent="1" source="fxtVjTBRkr7HKqSmOPXZ-48" target="fxtVjTBRkr7HKqSmOPXZ-50">
          <mxGeometry relative="1" as="geometry" />
        </mxCell>
        <mxCell id="fxtVjTBRkr7HKqSmOPXZ-48" value="预训练模型词表及配置文件" style="rounded=0;whiteSpace=wrap;html=1;strokeWidth=2;" vertex="1" parent="1">
          <mxGeometry x="120" y="510" width="110" height="50" as="geometry" />
        </mxCell>
        <mxCell id="fxtVjTBRkr7HKqSmOPXZ-128" style="edgeStyle=orthogonalEdgeStyle;rounded=0;orthogonalLoop=1;jettySize=auto;html=1;exitX=0.5;exitY=1;exitDx=0;exitDy=0;entryX=0.5;entryY=0;entryDx=0;entryDy=0;endArrow=classic;endFill=1;strokeWidth=2;" edge="1" parent="1" source="fxtVjTBRkr7HKqSmOPXZ-50" target="fxtVjTBRkr7HKqSmOPXZ-126">
          <mxGeometry relative="1" as="geometry" />
        </mxCell>
        <mxCell id="fxtVjTBRkr7HKqSmOPXZ-50" value="模型训练" style="shape=process;whiteSpace=wrap;html=1;backgroundOutline=1;strokeWidth=2;" vertex="1" parent="1">
          <mxGeometry x="186.25" y="610" width="407.5" height="40" as="geometry" />
        </mxCell>
        <mxCell id="fxtVjTBRkr7HKqSmOPXZ-97" style="edgeStyle=orthogonalEdgeStyle;rounded=0;orthogonalLoop=1;jettySize=auto;html=1;exitX=1;exitY=0.5;exitDx=0;exitDy=0;entryX=0;entryY=0.5;entryDx=0;entryDy=0;endArrow=classic;endFill=1;strokeWidth=2;" edge="1" parent="1" source="fxtVjTBRkr7HKqSmOPXZ-55" target="fxtVjTBRkr7HKqSmOPXZ-96">
          <mxGeometry relative="1" as="geometry" />
        </mxCell>
        <mxCell id="fxtVjTBRkr7HKqSmOPXZ-55" value="模型" style="rounded=0;whiteSpace=wrap;html=1;strokeWidth=2;" vertex="1" parent="1">
          <mxGeometry x="490" y="820" width="60" height="60" as="geometry" />
        </mxCell>
        <mxCell id="fxtVjTBRkr7HKqSmOPXZ-72" value="" style="group;strokeWidth=2;" vertex="1" connectable="0" parent="1">
          <mxGeometry x="239" y="770" width="221" height="160" as="geometry" />
        </mxCell>
        <mxCell id="fxtVjTBRkr7HKqSmOPXZ-69" value="" style="rounded=0;whiteSpace=wrap;html=1;fillColor=#ffffff;strokeWidth=2;" vertex="1" parent="fxtVjTBRkr7HKqSmOPXZ-72">
          <mxGeometry width="221" height="160" as="geometry" />
        </mxCell>
        <mxCell id="fxtVjTBRkr7HKqSmOPXZ-68" value="" style="rounded=0;whiteSpace=wrap;html=1;fillColor=#ffffff;strokeWidth=2;" vertex="1" parent="fxtVjTBRkr7HKqSmOPXZ-72">
          <mxGeometry x="11" y="10" width="200" height="110" as="geometry" />
        </mxCell>
        <mxCell id="fxtVjTBRkr7HKqSmOPXZ-70" value="" style="rounded=0;whiteSpace=wrap;html=1;fillColor=#ffffff;strokeWidth=2;" vertex="1" parent="fxtVjTBRkr7HKqSmOPXZ-72">
          <mxGeometry x="11" y="130" width="150" height="20" as="geometry" />
        </mxCell>
        <mxCell id="fxtVjTBRkr7HKqSmOPXZ-71" value="输入" style="rounded=1;whiteSpace=wrap;html=1;fillColor=#ffffff;strokeWidth=2;" vertex="1" parent="fxtVjTBRkr7HKqSmOPXZ-72">
          <mxGeometry x="171" y="130" width="40" height="20" as="geometry" />
        </mxCell>
        <mxCell id="fxtVjTBRkr7HKqSmOPXZ-73" value="系统UI模块" style="text;html=1;strokeColor=none;fillColor=none;align=center;verticalAlign=middle;whiteSpace=wrap;rounded=0;strokeWidth=2;" vertex="1" parent="fxtVjTBRkr7HKqSmOPXZ-72">
          <mxGeometry x="65" y="20" width="91" height="20" as="geometry" />
        </mxCell>
        <mxCell id="fxtVjTBRkr7HKqSmOPXZ-82" style="edgeStyle=orthogonalEdgeStyle;rounded=0;orthogonalLoop=1;jettySize=auto;html=1;exitX=0.5;exitY=0;exitDx=0;exitDy=0;entryX=0.75;entryY=0;entryDx=0;entryDy=0;endArrow=classic;endFill=1;strokeWidth=2;" edge="1" parent="1" source="fxtVjTBRkr7HKqSmOPXZ-80" target="fxtVjTBRkr7HKqSmOPXZ-69">
          <mxGeometry relative="1" as="geometry">
            <Array as="points">
              <mxPoint x="720" y="750" />
              <mxPoint x="405" y="750" />
            </Array>
          </mxGeometry>
        </mxCell>
        <mxCell id="fxtVjTBRkr7HKqSmOPXZ-80" value="文本预测结果" style="rounded=0;whiteSpace=wrap;html=1;fillColor=#ffffff;strokeWidth=2;" vertex="1" parent="1">
          <mxGeometry x="660" y="800" width="120" height="30" as="geometry" />
        </mxCell>
        <mxCell id="fxtVjTBRkr7HKqSmOPXZ-83" value="输出" style="text;html=1;strokeColor=none;fillColor=none;align=center;verticalAlign=middle;whiteSpace=wrap;rounded=0;strokeWidth=2;" vertex="1" parent="1">
          <mxGeometry x="680" y="767.5" width="40" height="20" as="geometry" />
        </mxCell>
        <mxCell id="fxtVjTBRkr7HKqSmOPXZ-86" style="edgeStyle=orthogonalEdgeStyle;rounded=0;orthogonalLoop=1;jettySize=auto;html=1;exitX=1;exitY=0.75;exitDx=0;exitDy=0;entryX=0;entryY=0.5;entryDx=0;entryDy=0;endArrow=classic;endFill=1;strokeWidth=2;" edge="1" parent="1" source="fxtVjTBRkr7HKqSmOPXZ-69" target="fxtVjTBRkr7HKqSmOPXZ-55">
          <mxGeometry relative="1" as="geometry">
            <Array as="points">
              <mxPoint x="460" y="850" />
            </Array>
          </mxGeometry>
        </mxCell>
        <mxCell id="fxtVjTBRkr7HKqSmOPXZ-98" style="edgeStyle=orthogonalEdgeStyle;rounded=0;orthogonalLoop=1;jettySize=auto;html=1;exitX=1;exitY=0.5;exitDx=0;exitDy=0;entryX=0.5;entryY=1;entryDx=0;entryDy=0;endArrow=classic;endFill=1;strokeWidth=2;" edge="1" parent="1" source="fxtVjTBRkr7HKqSmOPXZ-96" target="fxtVjTBRkr7HKqSmOPXZ-80">
          <mxGeometry relative="1" as="geometry" />
        </mxCell>
        <mxCell id="fxtVjTBRkr7HKqSmOPXZ-102" style="edgeStyle=orthogonalEdgeStyle;rounded=0;orthogonalLoop=1;jettySize=auto;html=1;exitX=0.5;exitY=1;exitDx=0;exitDy=0;endArrow=classic;endFill=1;strokeWidth=2;" edge="1" parent="1" source="fxtVjTBRkr7HKqSmOPXZ-96" target="fxtVjTBRkr7HKqSmOPXZ-84">
          <mxGeometry relative="1" as="geometry" />
        </mxCell>
        <mxCell id="fxtVjTBRkr7HKqSmOPXZ-96" value="文件输入？" style="rhombus;whiteSpace=wrap;html=1;fillColor=#ffffff;strokeWidth=2;" vertex="1" parent="1">
          <mxGeometry x="570" y="830" width="91" height="40" as="geometry" />
        </mxCell>
        <mxCell id="fxtVjTBRkr7HKqSmOPXZ-99" value="NO" style="text;html=1;strokeColor=none;fillColor=none;align=center;verticalAlign=middle;whiteSpace=wrap;rounded=0;strokeWidth=2;" vertex="1" parent="1">
          <mxGeometry x="720" y="830" width="40" height="20" as="geometry" />
        </mxCell>
        <mxCell id="fxtVjTBRkr7HKqSmOPXZ-101" value="" style="group;strokeWidth=2;" vertex="1" connectable="0" parent="1">
          <mxGeometry x="515.5" y="920" width="200" height="130" as="geometry" />
        </mxCell>
        <mxCell id="fxtVjTBRkr7HKqSmOPXZ-84" value="" style="rounded=0;whiteSpace=wrap;html=1;fillColor=#ffffff;strokeWidth=2;" vertex="1" parent="fxtVjTBRkr7HKqSmOPXZ-101">
          <mxGeometry width="200" height="130" as="geometry" />
        </mxCell>
        <mxCell id="fxtVjTBRkr7HKqSmOPXZ-100" value="" style="group;strokeWidth=2;" vertex="1" connectable="0" parent="fxtVjTBRkr7HKqSmOPXZ-101">
          <mxGeometry x="10" y="12.5" width="190" height="107.5" as="geometry" />
        </mxCell>
        <mxCell id="fxtVjTBRkr7HKqSmOPXZ-89" value="comment_neg.txt" style="rounded=0;whiteSpace=wrap;html=1;fillColor=#ffffff;strokeWidth=2;" vertex="1" parent="fxtVjTBRkr7HKqSmOPXZ-100">
          <mxGeometry y="77.5" width="110" height="30" as="geometry" />
        </mxCell>
        <mxCell id="fxtVjTBRkr7HKqSmOPXZ-90" value="comment_neg.txt" style="rounded=0;whiteSpace=wrap;html=1;fillColor=#ffffff;strokeWidth=2;" vertex="1" parent="fxtVjTBRkr7HKqSmOPXZ-100">
          <mxGeometry y="37.5" width="110" height="30" as="geometry" />
        </mxCell>
        <mxCell id="fxtVjTBRkr7HKqSmOPXZ-91" value="comment_neg.txt" style="rounded=0;whiteSpace=wrap;html=1;fillColor=#ffffff;strokeWidth=2;" vertex="1" parent="fxtVjTBRkr7HKqSmOPXZ-100">
          <mxGeometry width="110" height="30" as="geometry" />
        </mxCell>
        <mxCell id="fxtVjTBRkr7HKqSmOPXZ-92" value="文件分类结果" style="text;html=1;strokeColor=none;fillColor=none;align=center;verticalAlign=middle;whiteSpace=wrap;rounded=0;strokeWidth=2;" vertex="1" parent="fxtVjTBRkr7HKqSmOPXZ-100">
          <mxGeometry x="150" y="17.5" width="40" height="20" as="geometry" />
        </mxCell>
        <mxCell id="fxtVjTBRkr7HKqSmOPXZ-103" value="YES" style="text;html=1;strokeColor=none;fillColor=none;align=center;verticalAlign=middle;whiteSpace=wrap;rounded=0;strokeWidth=2;" vertex="1" parent="1">
          <mxGeometry x="621" y="892.5" width="40" height="20" as="geometry" />
        </mxCell>
        <mxCell id="fxtVjTBRkr7HKqSmOPXZ-108" style="edgeStyle=orthogonalEdgeStyle;rounded=0;orthogonalLoop=1;jettySize=auto;html=1;exitX=0.5;exitY=0;exitDx=0;exitDy=0;entryX=0.5;entryY=1;entryDx=0;entryDy=0;endArrow=classic;endFill=1;strokeWidth=2;" edge="1" parent="1" source="fxtVjTBRkr7HKqSmOPXZ-104" target="fxtVjTBRkr7HKqSmOPXZ-69">
          <mxGeometry relative="1" as="geometry" />
        </mxCell>
        <mxCell id="fxtVjTBRkr7HKqSmOPXZ-104" value="各类文件评论数量统计" style="rounded=0;whiteSpace=wrap;html=1;fillColor=#ffffff;strokeWidth=2;" vertex="1" parent="1">
          <mxGeometry x="298" y="960" width="147" height="30" as="geometry" />
        </mxCell>
        <mxCell id="fxtVjTBRkr7HKqSmOPXZ-110" style="edgeStyle=orthogonalEdgeStyle;rounded=0;orthogonalLoop=1;jettySize=auto;html=1;exitX=0;exitY=0.5;exitDx=0;exitDy=0;entryX=0.108;entryY=1.017;entryDx=0;entryDy=0;entryPerimeter=0;endArrow=classic;endFill=1;strokeWidth=2;" edge="1" parent="1" source="fxtVjTBRkr7HKqSmOPXZ-105" target="fxtVjTBRkr7HKqSmOPXZ-69">
          <mxGeometry relative="1" as="geometry" />
        </mxCell>
        <mxCell id="fxtVjTBRkr7HKqSmOPXZ-105" value="各类文件关键词抽取" style="rounded=0;whiteSpace=wrap;html=1;fillColor=#ffffff;strokeWidth=2;" vertex="1" parent="1">
          <mxGeometry x="298" y="1010" width="147" height="30" as="geometry" />
        </mxCell>
        <mxCell id="fxtVjTBRkr7HKqSmOPXZ-106" style="edgeStyle=orthogonalEdgeStyle;rounded=0;orthogonalLoop=1;jettySize=auto;html=1;exitX=0;exitY=0.25;exitDx=0;exitDy=0;entryX=1;entryY=0.5;entryDx=0;entryDy=0;endArrow=classic;endFill=1;strokeWidth=2;" edge="1" parent="1" source="fxtVjTBRkr7HKqSmOPXZ-84" target="fxtVjTBRkr7HKqSmOPXZ-104">
          <mxGeometry relative="1" as="geometry" />
        </mxCell>
        <mxCell id="fxtVjTBRkr7HKqSmOPXZ-107" style="edgeStyle=orthogonalEdgeStyle;rounded=0;orthogonalLoop=1;jettySize=auto;html=1;exitX=0;exitY=0.75;exitDx=0;exitDy=0;entryX=1;entryY=0.5;entryDx=0;entryDy=0;endArrow=classic;endFill=1;strokeWidth=2;" edge="1" parent="1" source="fxtVjTBRkr7HKqSmOPXZ-84" target="fxtVjTBRkr7HKqSmOPXZ-105">
          <mxGeometry relative="1" as="geometry" />
        </mxCell>
        <mxCell id="fxtVjTBRkr7HKqSmOPXZ-109" value="输出" style="text;html=1;strokeColor=none;fillColor=none;align=center;verticalAlign=middle;whiteSpace=wrap;rounded=0;strokeWidth=2;" vertex="1" parent="1">
          <mxGeometry x="351.5" y="940" width="40" height="20" as="geometry" />
        </mxCell>
        <mxCell id="fxtVjTBRkr7HKqSmOPXZ-111" value="输出" style="text;html=1;strokeColor=none;fillColor=none;align=center;verticalAlign=middle;whiteSpace=wrap;rounded=0;strokeWidth=2;" vertex="1" parent="1">
          <mxGeometry x="220" y="970" width="40" height="20" as="geometry" />
        </mxCell>
        <mxCell id="fxtVjTBRkr7HKqSmOPXZ-129" style="edgeStyle=orthogonalEdgeStyle;rounded=0;orthogonalLoop=1;jettySize=auto;html=1;exitX=0.5;exitY=1;exitDx=0;exitDy=0;endArrow=classic;endFill=1;strokeWidth=2;" edge="1" parent="1" source="fxtVjTBRkr7HKqSmOPXZ-126" target="fxtVjTBRkr7HKqSmOPXZ-55">
          <mxGeometry relative="1" as="geometry">
            <Array as="points">
              <mxPoint x="390" y="730" />
              <mxPoint x="530" y="730" />
            </Array>
          </mxGeometry>
        </mxCell>
        <mxCell id="fxtVjTBRkr7HKqSmOPXZ-126" value="效果最优模型" style="rounded=0;whiteSpace=wrap;html=1;fillColor=#ffffff;strokeWidth=2;" vertex="1" parent="1">
          <mxGeometry x="345" y="670" width="90" height="30" as="geometry" />
        </mxCell>
        <mxCell id="fxtVjTBRkr7HKqSmOPXZ-136" style="edgeStyle=orthogonalEdgeStyle;rounded=0;orthogonalLoop=1;jettySize=auto;html=1;exitX=1;exitY=0.5;exitDx=0;exitDy=0;entryX=0;entryY=0.25;entryDx=0;entryDy=0;endArrow=classic;endFill=1;strokeWidth=2;" edge="1" parent="1" source="fxtVjTBRkr7HKqSmOPXZ-133" target="fxtVjTBRkr7HKqSmOPXZ-69">
          <mxGeometry relative="1" as="geometry" />
        </mxCell>
        <mxCell id="fxtVjTBRkr7HKqSmOPXZ-133" value="用户输入文本" style="rounded=0;whiteSpace=wrap;html=1;fillColor=#ffffff;strokeWidth=2;" vertex="1" parent="1">
          <mxGeometry x="100" y="790" width="120" height="40" as="geometry" />
        </mxCell>
        <mxCell id="fxtVjTBRkr7HKqSmOPXZ-137" style="edgeStyle=orthogonalEdgeStyle;rounded=0;orthogonalLoop=1;jettySize=auto;html=1;exitX=1;exitY=0.5;exitDx=0;exitDy=0;entryX=-0.011;entryY=0.646;entryDx=0;entryDy=0;entryPerimeter=0;endArrow=classic;endFill=1;strokeWidth=2;" edge="1" parent="1" source="fxtVjTBRkr7HKqSmOPXZ-134" target="fxtVjTBRkr7HKqSmOPXZ-69">
          <mxGeometry relative="1" as="geometry" />
        </mxCell>
        <mxCell id="fxtVjTBRkr7HKqSmOPXZ-134" value="用户输入文件" style="rounded=0;whiteSpace=wrap;html=1;fillColor=#ffffff;strokeWidth=2;" vertex="1" parent="1">
          <mxGeometry x="100" y="852.5" width="120" height="40" as="geometry" />
        </mxCell>
        <mxCell id="fxtVjTBRkr7HKqSmOPXZ-140" value="模&lt;br&gt;型&lt;br&gt;训&lt;br&gt;练&lt;br&gt;模&lt;br&gt;块" style="text;html=1;strokeColor=none;fillColor=none;align=center;verticalAlign=middle;whiteSpace=wrap;rounded=0;strokeWidth=2;" vertex="1" parent="1">
          <mxGeometry x="715.5" y="520" width="40" height="120" as="geometry" />
        </mxCell>
        <mxCell id="fxtVjTBRkr7HKqSmOPXZ-141" value="系&lt;br&gt;统&lt;br&gt;实&lt;br&gt;现&lt;br&gt;模&lt;br&gt;块" style="text;html=1;strokeColor=none;fillColor=none;align=center;verticalAlign=middle;whiteSpace=wrap;rounded=0;strokeWidth=2;" vertex="1" parent="1">
          <mxGeometry x="740" y="920" width="40" height="120" as="geometry" />
        </mxCell>
      </root>
    </mxGraphModel>
  </diagram>
</mxfile>
